<svg xmlns="http://www.w3.org/2000/svg" width="98" height="98" viewBox="0 0 98 98">
  <g id="그룹_99" data-name="그룹 99" transform="translate(-258 -242)">
    <circle id="타원_70" data-name="타원 70" cx="49" cy="49" r="49" transform="translate(258 242)" fill="#1e7afa"/>
    <g id="그룹_98" data-name="그룹 98" transform="translate(265.926 268.52)">
      <path id="패스_858" data-name="패스 858" d="M56.52,42.57V15.44h3.51V25.829a8.981,8.981,0,0,1,12.25.664,9.268,9.268,0,0,1,2.63,6.672v9.408H71.4V33.165a5.922,5.922,0,0,0-1.619-4.2,5.643,5.643,0,0,0-8.129,0,5.915,5.915,0,0,0-1.619,4.2v9.408h-3.51Z" transform="translate(-35.191 -9.613)" fill="#fff"/>
      <path id="패스_859" data-name="패스 859" d="M130.685,37.41v9.434a9.417,9.417,0,0,1-18.835,0V37.41h3.506v9.434a5.667,5.667,0,0,0,1.728,4.17,5.78,5.78,0,0,0,4.2,1.728,5.9,5.9,0,0,0,5.9-5.9V37.41h3.51Z" transform="translate(-69.64 -23.292)" fill="#fff"/>
      <g id="그룹_94" data-name="그룹 94" transform="translate(0 14.125)">
        <path id="패스_860" data-name="패스 860" d="M0,46.883v9.374H3.517V46.883a5.749,5.749,0,0,1,1.759-4.219,5.721,5.721,0,0,1,4.181-1.717,5.933,5.933,0,0,1,5.9,5.936v3.555h3.476V46.883A9.066,9.066,0,0,0,16.1,40.2,9.151,9.151,0,0,0,9.453,37.43,9.1,9.1,0,0,0,2.774,40.2,9.1,9.1,0,0,0,0,46.883Z" transform="translate(0 -37.43)" fill="#fff"/>
        <rect id="사각형_983" data-name="사각형 983" width="3.506" height="3.4" transform="translate(15.333 15.431)" fill="#fff"/>
      </g>
      <g id="그룹_95" data-name="그룹 95" transform="translate(63.309)">
        <path id="패스_861" data-name="패스 861" d="M177.2,23.7a9.431,9.431,0,0,1,9.4,9.431,9.417,9.417,0,0,1-18.835,0V15.44h3.51V25.856A9.117,9.117,0,0,1,177.2,23.7Zm0,15.333a5.9,5.9,0,0,0,5.9-5.9,5.75,5.75,0,0,0-1.728-4.2,5.687,5.687,0,0,0-4.17-1.728,5.9,5.9,0,0,0-5.929,5.925,5.9,5.9,0,0,0,5.929,5.9Z" transform="translate(-167.766 -9.613)" fill="#fff"/>
        <rect id="사각형_984" data-name="사각형 984" width="3.506" height="3.4" fill="#fff"/>
      </g>
    </g>
  </g>
</svg>
