<svg xmlns="http://www.w3.org/2000/svg" width="30" height="30" viewBox="0 0 30 30">
    <g transform="translate(-1372 -5674)">
        <circle data-name="타원 42" cx="15" cy="15" r="15" transform="translate(1372 5674)" style="fill:#20202a"/>
        <path data-name="패스 693" d="M125.086 76.121a15.907 15.907 0 0 0-3.977-1.221 11.558 11.558 0 0 0-.506 1.047 14.4 14.4 0 0 0-4.413 0 9.76 9.76 0 0 0-.523-1.047 15.053 15.053 0 0 0-3.977 1.238 16.33 16.33 0 0 0-2.86 11.006 15.7 15.7 0 0 0 4.884 2.459 11.342 11.342 0 0 0 1.047-1.692 9.436 9.436 0 0 1-1.64-.785c.14-.1.262-.209.4-.314a11.4 11.4 0 0 0 9.767 0c.14.1.262.209.4.314a9.6 9.6 0 0 1-1.657.785 11.341 11.341 0 0 0 1.049 1.689 15.891 15.891 0 0 0 4.884-2.459 16.368 16.368 0 0 0-2.878-11.02zm-9.907 8.791a1.956 1.956 0 1 1 1.744-1.936 1.84 1.84 0 0 1-1.744 1.936zm6.419 0a1.959 1.959 0 1 1 1.727-1.936 1.84 1.84 0 0 1-1.725 1.936z" transform="translate(1268.612 5606.748)" style="fill:#fff"/>
    </g>
</svg>
