<?xml version="1.0" encoding="UTF-8"?>
<svg id="Layer_2" data-name="Layer 2" xmlns="http://www.w3.org/2000/svg" viewBox="0 0 314.28 87.33">
  <defs>
    <style>
      .cls-1 {
        fill: #fff;
      }

      .cls-2 {
        fill: #1b76ff;
      }
    </style>
  </defs>
  <g id="_레이어_1" data-name="레이어 1">
    <g>
      <g>
        <path class="cls-1" d="m56.52,87.33V15.44h9.3v27.53c4.6-3.71,9.62-5.56,15.07-5.56,6.85,0,12.65,2.44,17.39,7.32,4.65,4.84,6.97,10.73,6.97,17.68v24.93h-9.3v-24.93c0-4.37-1.43-8.07-4.29-11.13-2.91-3.05-6.51-4.58-10.77-4.58s-7.86,1.52-10.77,4.58c-2.86,3.05-4.29,6.76-4.29,11.13v24.93h-9.3Z"/>
        <path class="cls-1" d="m161.76,37.41v25c0,6.85-2.44,12.72-7.32,17.6-4.88,4.88-10.75,7.32-17.6,7.32s-12.79-2.44-17.67-7.32c-4.88-4.88-7.32-10.75-7.32-17.6v-25h9.29v25c0,4.32,1.52,8,4.58,11.05,3.1,3.05,6.81,4.58,11.13,4.58s8.01-1.52,11.06-4.58c3.05-3.05,4.58-6.74,4.58-11.05v-25h9.3Z"/>
        <g>
          <path class="cls-1" d="m0,62.48v24.84s9.32,0,9.32,0v-24.84c0-4.35,1.55-8.07,4.66-11.18,3-3,6.73-4.55,11.08-4.55,4.24,0,7.97,1.55,10.97,4.55,3.11,3.11,4.66,6.83,4.66,11.18v9.42s9.21,0,9.21,0v-9.42c0-6.94-2.38-12.84-7.25-17.7-4.97-4.87-10.77-7.35-17.6-7.35-6.94,0-12.84,2.48-17.7,7.35C2.48,49.64,0,55.54,0,62.48Z"/>
          <rect class="cls-2" x="40.63" y="78.32" width="9.29" height="9.01"/>
        </g>
        <g>
          <path class="cls-1" d="m192.76,37.34c6.85,0,12.72,2.44,17.6,7.32,4.88,4.88,7.32,10.77,7.32,17.67s-2.44,12.72-7.32,17.6c-4.88,4.88-10.75,7.32-17.6,7.32s-12.79-2.44-17.67-7.32c-4.88-4.88-7.32-10.75-7.32-17.6V15.44h9.3v27.6c4.65-3.8,9.88-5.7,15.7-5.7Zm0,40.63c4.32,0,8-1.52,11.05-4.58,3.05-3.05,4.58-6.74,4.58-11.06s-1.52-8.03-4.58-11.12c-3.05-3.05-6.74-4.58-11.05-4.58s-8.07,1.52-11.13,4.58c-3.05,3.1-4.58,6.81-4.58,11.12s1.52,8.01,4.58,11.06c3.05,3.05,6.76,4.58,11.13,4.58Z"/>
          <rect class="cls-2" x="167.76" y="0" width="9.29" height="9.01"/>
        </g>
      </g>
      <path class="cls-1" d="m270.36,49.2l-11.88,24.92c-.22.47-.58.71-1.09.71s-.88-.24-1.09-.71l-18.41-42.94h-9.37l22.2,51.1c1.33,2.82,3.55,4.23,6.67,4.23s5.33-1.41,6.61-4.23l15.67-33.07h-9.31Z"/>
      <path class="cls-2" d="m314.28,78.83v8.22h-43.05l7.1-8.22,23.17-26.78c1.91-2.28,2.86-4.88,2.86-7.79,0-3.4-1.2-6.31-3.61-8.72-2.41-2.41-5.32-3.61-8.72-3.61s-6.31,1.2-8.72,3.61c-2.41,2.41-3.61,5.32-3.61,8.72h-8.35c0-5.69,2.01-10.55,6.04-14.58,4.07-4.03,8.95-6.04,14.64-6.04s10.55,2.01,14.58,6.04c4.07,4.03,6.1,8.89,6.1,14.58,0,4.86-1.6,9.22-4.8,13.08v.06l-18.62,21.43h24.98Z"/>
    </g>
  </g>
</svg>