<svg xmlns="http://www.w3.org/2000/svg" width="24" height="24" viewBox="0 0 24 24">
    <path data-name="사각형 746" style="fill:none" d="M0 0h24v24H0z"/>
    <path data-name="패스 678" d="M12 7a5 5 0 1 0 5 5 5 5 0 0 0-5-5zM2 13h2a1 1 0 0 0 0-2H2a1 1 0 0 0 0 2zm18 0h2a1 1 0 0 0 0-2h-2a1 1 0 0 0 0 2zM11 2v2a1 1 0 0 0 2 0V2a1 1 0 0 0-2 0zm0 18v2a1 1 0 0 0 2 0v-2a1 1 0 0 0-2 0zM5.99 4.58a1 1 0 0 0-1.41 1.41l1.06 1.06a1 1 0 0 0 1.41-1.41zm12.37 12.37a1 1 0 0 0-1.41 1.41l1.06 1.06a1 1 0 0 0 1.41-1.41zm1.06-10.96a1 1 0 0 0-1.41-1.41l-1.06 1.06a1 1 0 0 0 1.41 1.41zM7.05 18.36a1 1 0 0 0-1.41-1.41l-1.06 1.06a1 1 0 0 0 1.41 1.41z" style="fill:#fff"/>
</svg>
