<?xml version="1.0" encoding="UTF-8"?>
<svg id="Layer_2" data-name="Layer 2" xmlns="http://www.w3.org/2000/svg" viewBox="0 0 286.32 83.59">
  <defs>
    <style>
      .cls-1 {
        fill: #fff;
      }

      .cls-1, .cls-2 {
        stroke-width: 0px;
      }

      .cls-2 {
        fill: #1b76ff;
      }
    </style>
  </defs>
  <g id="_레이어_1" data-name="레이어 1">
    <g id="white02">
      <path class="cls-1" d="M125.04,26.55c-7.72,0-14.36,2.75-19.93,8.32-5.5,5.5-8.26,12.21-8.26,20v28.26h10.47v-28.26c0-4.9,1.75-9.06,5.24-12.62,3.42-3.42,7.58-5.17,12.48-5.17h6.71v-10.54h-6.71Z"/>
      <g>
        <rect class="cls-2" x="0" y="74.8" width="9.06" height="8.79"/>
        <rect class="cls-2" x="78.59" y="26.09" width="9.13" height="8.86"/>
        <path class="cls-1" d="M78.7,37.08v20.78c0,4.46-1.5,8.29-4.51,11.48-2.91,3.08-6.52,4.68-10.73,4.68s-7.72-1.59-10.63-4.68c-3.01-3.19-4.51-7.02-4.51-11.48v-3.97h0v-2.08c0-7.12-2.31-13.18-7.02-18.18-4.81-5-10.43-7.55-17.04-7.55s-12.43,2.55-17.14,7.55C2.41,38.63,0,44.69,0,51.81v20.64h9.02v-20.64c0-4.46,1.5-8.29,4.51-11.48,2.91-3.08,6.52-4.68,10.73-4.68s7.72,1.59,10.63,4.68c3.01,3.19,4.51,7.02,4.51,11.48v5.47h0v.59c0,7.12,2.31,13.18,7.02,18.18,4.81,5,10.43,7.55,17.04,7.55s12.43-2.55,17.14-7.55c4.71-5,7.12-11.05,7.12-18.18v-20.78h-9.02Z"/>
      </g>
      <path class="cls-1" d="M189.02,83.39h-10.67v-6.46c-5.33,4.36-11.33,6.54-18.01,6.54-7.87,0-14.59-2.8-20.19-8.4-5.61-5.6-8.41-12.33-8.41-20.19s2.8-14.68,8.41-20.28c5.6-5.6,12.32-8.4,20.19-8.4s14.67,2.8,20.27,8.4c5.6,5.6,8.41,12.36,8.41,20.28v28.51ZM160.35,72.81c4.95,0,9.2-1.75,12.76-5.25,3.5-3.51,5.25-7.73,5.25-12.68s-1.75-9.21-5.25-12.77c-3.56-3.5-7.81-5.25-12.76-5.25s-9.18,1.75-12.68,5.25c-3.5,3.56-5.25,7.81-5.25,12.77s1.75,9.18,5.25,12.68c3.5,3.5,7.73,5.25,12.68,5.25Z"/>
      <g>
        <rect class="cls-1" x="199.81" y="34.94" width="9.13" height="48.53"/>
        <rect class="cls-1" x="199.81" width="9.13" height="26.09"/>
        <rect class="cls-2" x="199.81" y="26.09" width="9.13" height="8.86"/>
      </g>
      <path class="cls-1" d="M229.2,83.36v-34.72c0-6.05,1.48-12.07,5.6-16.26,3.62-3.69,7.13-5.95,14.81-5.95h16.11v10.67h-14.29c-9.2,0-11.87,4.79-11.87,10.57v4.06l25.74-.03v7.44l-25.74.06v24.22l-10.37-.06Z"/>
      <path class="cls-1" d="M277.23,83.36v-46.26s9.09,0,9.09,0v46.26s-9.09,0-9.09,0Z"/>
      <rect class="cls-2" x="277.2" y="26.09" width="9.12" height="8.86"/>
    </g>
  </g>
</svg>