<svg xmlns="http://www.w3.org/2000/svg" width="30" height="30" viewBox="0 0 30 30">
    <g transform="translate(-1452 -5674)">
        <circle data-name="타원 45" cx="15" cy="15" r="15" transform="translate(1452 5674)" style="fill:#20202a"/>
        <path data-name="패스 694" d="M87.759 152.165s7.5-3.078 10.1-4.162c1-.434 4.379-1.821 4.379-1.821s1.561-.607 1.431.867c-.043.607-.39 2.731-.737 5.029-.52 3.251-1.084 6.806-1.084 6.806s-.087 1-.824 1.171a3.566 3.566 0 0 1-2.168-.78c-.173-.13-3.251-2.081-4.379-3.035a.821.821 0 0 1 .043-1.387 165.753 165.753 0 0 0 4.552-4.335c.52-.52 1.04-1.734-1.127-.26a373.47 373.47 0 0 1-6.113 4.119 2.547 2.547 0 0 1-1.994.043c-1.3-.39-2.818-.91-2.818-.91s-1.038-.652.739-1.345z" transform="translate(1370.28 5535.941)" style="fill:#fff"/>
    </g>
</svg>
