<svg xmlns="http://www.w3.org/2000/svg" width="30" height="30" viewBox="0 0 30 30">
    <g transform="translate(-1532 -5674)">
        <circle data-name="타원 48" cx="15" cy="15" r="15" transform="translate(1532 5674)" style="fill:#20202a"/>
        <path data-name="제외 1" d="M-1979.5-1866.3c-.066 0-6.576-.005-8.187-.445a2.648 2.648 0 0 1-1.858-1.858 20.441 20.441 0 0 1-.453-5 34.26 34.26 0 0 1 .44-5.086 2.647 2.647 0 0 1 1.858-1.858c1.6-.436 7.918-.457 8.187-.458.066 0 6.576.005 8.186.445a2.65 2.65 0 0 1 1.859 1.858 28.2 28.2 0 0 1 .013 10.1 2.648 2.648 0 0 1-1.858 1.858c-1.611.444-8.121.444-8.187.444zm-2.1-10.5v6.3l5.439-3.151-5.439-3.151z" transform="translate(3526.502 7562.648)" style="fill:#fff"/>
    </g>
</svg>
