<svg xmlns="http://www.w3.org/2000/svg" width="49.85" height="20" viewBox="0 0 49.85 20">
    <defs>
        <clipPath id="poafaep8ja">
            <path data-name="사각형 43" style="fill:none" d="M0 0h49.85v20H0z"/>
        </clipPath>
    </defs>
    <g data-name="그룹 1" style="clip-path:url(#poafaep8ja)">
        <path data-name="패스 1" d="M163.436 61.11V44.646h2.129v6.306a5.448 5.448 0 0 1 7.433.4 5.624 5.624 0 0 1 1.6 4.048v5.71h-2.129V55.4a3.59 3.59 0 0 0-.983-2.548 3.429 3.429 0 0 0-4.935 0 3.586 3.586 0 0 0-.983 2.548v5.71z" transform="translate(-150.493 -41.11)" style="fill:#fff"/>
        <path data-name="패스 2" d="M334.846 108.182v5.725a5.716 5.716 0 0 1-11.433 0v-5.725h2.128v5.725a3.448 3.448 0 0 0 1.048 2.531 3.5 3.5 0 0 0 2.548 1.048 3.578 3.578 0 0 0 3.58-3.579v-5.725z" transform="translate(-297.801 -99.615)" style="fill:#fff"/>
        <path data-name="패스 3" d="M0 113.964v5.689h2.134v-5.689a3.6 3.6 0 0 1 3.6-3.6 3.456 3.456 0 0 1 2.515 1.036 3.492 3.492 0 0 1 1.067 2.56v2.157h2.11v-2.157a5.509 5.509 0 0 0-1.659-4.053 5.554 5.554 0 0 0-4.03-1.683 5.53 5.53 0 0 0-4.054 1.683A5.53 5.53 0 0 0 0 113.964" transform="translate(0 -99.657)" style="fill:#fff"/>
        <path data-name="사각형 41" transform="translate(9.305 17.937)" style="fill:#1b76ff" d="M0 0h2.128v2.063H0z"/>
        <path data-name="패스 4" d="M490.845 49.662a5.712 5.712 0 1 1-5.725 5.724v-10.74h2.129v6.322a5.53 5.53 0 0 1 3.6-1.306m0 9.3a3.578 3.578 0 0 0 3.579-3.58 3.5 3.5 0 0 0-1.048-2.547 3.6 3.6 0 0 0-5.08 0 3.5 3.5 0 0 0-1.048 2.547 3.578 3.578 0 0 0 3.6 3.58" transform="translate(-446.703 -41.11)" style="fill:#fff"/>
        <path data-name="사각형 42" transform="translate(38.417)" style="fill:#1b76ff" d="M0 0h2.128v2.063H0z"/>
    </g>
</svg>
