<svg xmlns="http://www.w3.org/2000/svg" width="110.495" height="20" viewBox="0 0 110.495 20">
    <defs>
        <clipPath id="tjzpjtptza">
            <path data-name="사각형 776" style="fill:none" d="M0 0h110.495v20H0z"/>
        </clipPath>
    </defs>
    <path data-name="사각형 769" transform="translate(107.91 17.393)" style="fill:#ccc" d="M0 0h2.585v2.507H0z"/>
    <g data-name="그룹 48">
        <g data-name="그룹 47" style="clip-path:url(#tjzpjtptza)">
            <path data-name="패스 696" d="M0 35.432v6.911h2.592v-6.911a4.375 4.375 0 0 1 4.377-4.377 4.2 4.2 0 0 1 3.052 1.267 4.242 4.242 0 0 1 1.3 3.11v2.62h2.559v-2.62a6.692 6.692 0 0 0-2.016-4.924 6.748 6.748 0 0 0-4.9-2.044 6.719 6.719 0 0 0-4.924 2.044A6.718 6.718 0 0 0 0 35.432" transform="translate(0 -22.361)" style="fill:#fff"/>
            <path data-name="사각형 770" transform="translate(30.878 1.372)" style="fill:#ccc" d="M0 0h2.585v2.507H0z"/>
            <path data-name="패스 697" d="M170.693 28.476a6.95 6.95 0 0 0-6.922 6.955v6.939h2.571v-6.939a4.259 4.259 0 0 1 1.286-3.1 4.181 4.181 0 0 1 3.066-1.269h1.648v-2.586z" transform="translate(-128.655 -22.37)" style="fill:#fff"/>
            <path data-name="패스 698" d="M220.685 28.476v8.373a2.949 2.949 0 0 1-5.011 2.093 2.825 2.825 0 0 1-.857-2.077v-8.389h-2.587v8.389a2.921 2.921 0 0 1-.89 2.077 2.965 2.965 0 0 1-4.153-.017 2.824 2.824 0 0 1-.857-2.077v-5.784h-2.588v5.785a5.534 5.534 0 0 0 9.774 3.543 5.535 5.535 0 0 0 9.757-3.543v-8.373z" transform="translate(-160.056 -22.37)" style="fill:#fff"/>
            <path data-name="사각형 771" transform="translate(43.686 6.106)" style="fill:#ccc" d="M0 0h2.588v2.588H0z"/>
            <path data-name="패스 699" d="M304.535 40.342a6.926 6.926 0 0 1 0-9.811 6.942 6.942 0 0 1 11.847 4.916 6.937 6.937 0 0 1-11.847 4.895m1.821-7.989a4.252 4.252 0 0 0-1.273 3.094 4.345 4.345 0 1 0 1.273-3.094" transform="translate(-237.636 -22.386)" style="fill:#fff"/>
            <path data-name="패스 700" d="M381.867 28.5a6.952 6.952 0 0 0-6.932 6.952v6.928h2.584v-6.932a4.252 4.252 0 0 1 1.273-3.094 4.189 4.189 0 0 1 3.074-1.273h1.648V28.5z" transform="translate(-294.542 -22.386)" style="fill:#fff"/>
            <path data-name="사각형 772" transform="translate(88.973)" style="fill:#fff" d="M0 0h2.585v6.11H0z"/>
            <path data-name="패스 701" d="M420.871 50.993a9.459 9.459 0 0 1-1.352-1.731 1.086 1.086 0 0 1-.231.017h-.228a1.538 1.538 0 0 1-1.527-1.527v-7.188h-2.585v7.184a4.11 4.11 0 0 0 4.112 4.112h.113v.006h.115a3.805 3.805 0 0 0 1.978-.511 9.821 9.821 0 0 1-.4-.363" transform="translate(-325.976 -31.866)" style="fill:#fff"/>
            <path data-name="사각형 773" transform="translate(88.973 6.11)" style="fill:#ccc" d="M0 0h2.585v2.588H0z"/>
            <path data-name="패스 702" d="M452.4 13.063a6.671 6.671 0 0 1-2.036 4.895 6.925 6.925 0 0 1-9.811 0 6.67 6.67 0 0 1-2.037-4.895 6.7 6.7 0 0 1 2.037-4.916 6.857 6.857 0 0 1 9.262-.45V0h2.585zm-6.95 4.347a4.345 4.345 0 0 0 4.367-4.347A4.345 4.345 0 0 0 445.45 8.7a4.188 4.188 0 0 0-3.074 1.273 4.251 4.251 0 0 0-1.273 3.094 4.345 4.345 0 0 0 4.347 4.347" transform="translate(-344.491 -.001)" style="fill:#fff"/>
            <path data-name="패스 703" d="m78.488 28.5-5.874 12.593a2.054 2.054 0 0 1-2.014 1.292 2.091 2.091 0 0 1-2.037-1.292L62.686 28.5h2.859l4.72 10.1a.365.365 0 0 0 .666 0l4.719-10.1z" transform="translate(-49.245 -22.39)" style="fill:#fff"/>
            <path data-name="사각형 774" transform="translate(11.304 17.409)" style="fill:#ccc" d="M0 0h2.585v2.507H0z"/>
            <path data-name="사각형 775" transform="translate(30.878 6.11)" style="fill:#fff" d="M0 0h2.585v13.884H0z"/>
        </g>
    </g>
</svg>
